<?xml version="1.0" encoding="UTF-8"?>
<svg id="Ebene_1" xmlns="http://www.w3.org/2000/svg" version="1.1" viewBox="0 0 2000 2229.3">
  <!-- Generator: Adobe Illustrator 30.2.1, SVG Export Plug-In . SVG Version: 2.1.1 Build 1)  -->
  <defs>
    <style>
      .st0 {
        fill: #212a37;
      }
    </style>
  </defs>
  <path class="st0" d="M1789.9,1815.5H618.2L1925.9,442.5c72.9-74.8,94.1-184.9,54.1-281.6C1939.5,63.2,1845,0,1739.3,0H462.2c44.4,56,71,130.2,71,206.9s-26.6,151-71,206.9h919.5L74,1786.9c-72.8,74.7-94.1,184.9-54.1,281.6,40.4,97.7,134.9,160.9,240.8,160.9h1529.1c114.2,0,206.9-92.7,206.9-206.9s-92.7-206.9-206.9-206.9h0Z"/>
  <path class="st0" d="M410.7,206.9c0,56.2-22.6,107.2-59.2,144.2-37.2,37.6-88.8,60.9-145.9,60.9C92.2,412.1.4,320.2.4,206.9S92.2,1.8,205.6,1.8s108.7,23.3,145.8,61c36.7,37,59.3,87.9,59.3,144.1h0Z"/>
</svg>